<?xml version="1.0" encoding="iso-8859-1"?>
<!-- Generator: Adobe Illustrator 19.0.0, SVG Export Plug-In . SVG Version: 6.00 Build 0)  -->
<svg version="1.1" id="Layer_1" xmlns="http://www.w3.org/2000/svg" xmlns:xlink="http://www.w3.org/1999/xlink" x="0px" y="0px"
	 viewBox="0 0 512 512" style="enable-background:new 0 0 512 512;" xml:space="preserve">
<path style="fill:#5D9BEB;" d="M512,256.006C512,397.402,397.394,512.004,256.004,512C114.606,512.004,0,397.402,0,256.006
	C-0.007,114.61,114.606,0,256.004,0C397.394,0,512,114.614,512,256.006z"/>
<path style="fill:#4988DB;" d="M512,256.005c0-5.543-0.238-11.028-0.585-16.484l-88.423-88.423l-43.108-43.108h-0.001
	l-10.405-10.405c-0.001-0.001-0.001-0.001-0.001-0.001l-14.864-14.864c-2.549-2.549-6.566-2.91-9.531-0.861l-92.815,64.258
	l-92.816-64.258c-2.972-2.049-6.981-1.689-9.531,0.861l-67.2,67.2c-1.399,1.399-2.188,3.299-2.188,5.279v261.333
	c0,2.389,1.169,4.56,3.027,5.948c0.423,0.562,64.836,64.981,65.407,65.407c0.345,0.457,0.768,0.842,1.209,1.209
	c32.263,14.67,68.073,22.907,105.828,22.905C397.394,512.004,512,397.401,512,256.005z"/>
<g>
	<path style="fill:#F4F6F9;" d="M424,324.468V155.199c0-1.98-0.787-3.879-2.188-5.279l-67.2-67.2
		c-2.548-2.548-6.566-2.91-9.531-0.861l-92.815,64.257l-92.816-64.258c-2.972-2.049-6.981-1.689-9.531,0.861l-67.2,67.2
		c-1.401,1.401-2.188,3.299-2.188,5.279v261.333c0,3.019,1.82,5.746,4.608,6.898c0.926,0.386,1.895,0.569,2.859,0.569
		c1.943,0,3.85-0.758,5.279-2.188l62.796-62.796l91.94,63.657c2.25,1.561,5.152,1.75,7.59,0.54l42.045-21.022
		c13.662,17.761,35.06,29.277,59.149,29.277c41.172,0,74.667-33.498,74.667-74.667C431.467,345.206,428.735,334.267,424,324.468z
		 M409.067,303.567c-13.479-13.237-31.926-21.435-52.267-21.435V106.027l52.267,52.263V303.567z M162.667,102.25l82.133,56.863
		v243.169l-82.133-56.862V102.25z M95.467,158.29l52.267-52.263V346.24l-52.267,52.267V158.29z M259.733,404.451v-245.34
		l82.133-56.863v181.389c-34.041,6.938-59.733,37.105-59.733,73.162c0,11.715,2.788,22.765,7.617,32.642L259.733,404.451z
		 M356.8,416.532c-32.937,0-59.733-26.797-59.733-59.733s26.797-59.733,59.733-59.733s59.733,26.797,59.733,59.733
		S389.737,416.532,356.8,416.532z"/>
	<path style="fill:#F4F6F9;" d="M386.667,349.332h-22.4v-22.4c0-4.127-3.343-7.467-7.467-7.467s-7.467,3.34-7.467,7.467v22.4h-22.4
		c-4.124,0-7.467,3.34-7.467,7.467s3.343,7.467,7.467,7.467h22.4v22.4c0,4.127,3.343,7.467,7.467,7.467s7.467-3.34,7.467-7.467
		v-22.4h22.4c4.124,0,7.467-3.34,7.467-7.467S390.79,349.332,386.667,349.332z"/>
</g>
<g>
</g>
<g>
</g>
<g>
</g>
<g>
</g>
<g>
</g>
<g>
</g>
<g>
</g>
<g>
</g>
<g>
</g>
<g>
</g>
<g>
</g>
<g>
</g>
<g>
</g>
<g>
</g>
<g>
</g>
</svg>
